<svg width="106" height="28" viewBox="0 0 106 28" fill="none" xmlns="http://www.w3.org/2000/svg">
<rect width="106" height="28" fill="#013A89"/>
<rect x="2" y="2" width="48" height="24" fill="white"/>
<path d="M8.49333 10.4438C8.49333 11.4902 9.01651 12.0133 10.0629 12.0133H14.7714C16.4805 12.0133 17.7361 12.4144 18.5383 13.2166C19.3405 14.0188 19.7416 15.2745 19.7416 16.9835V18.2914C19.7416 20.0005 19.3405 21.2561 18.5383 22.0583C17.7361 22.8605 16.4805 23.2616 14.7714 23.2616C14.2483 23.2616 13.6902 23.2529 13.0973 23.2354C12.5218 23.218 11.9288 23.1918 11.3185 23.157C10.7255 23.1395 10.1239 23.1134 9.51352 23.0785C8.92059 23.061 8.35382 23.0349 7.81321 23C6.54015 22.9302 5.27581 22.843 4.02019 22.7384V19.207C5.29325 19.2767 6.53143 19.3465 7.73473 19.4163C8.76364 19.4686 9.82743 19.5122 10.9261 19.547C12.0248 19.5819 12.9578 19.5994 13.7251 19.5994C14.1262 19.5994 14.4401 19.486 14.6668 19.2593C14.9109 19.0152 15.033 18.6925 15.033 18.2914V15.9371H9.01651C7.1854 15.9371 5.8513 15.5273 5.01422 14.7077C4.19458 13.8706 3.78476 12.5365 3.78476 10.7054V9.92064C3.78476 8.08952 4.19458 6.76415 5.01422 5.94451C5.8513 5.10743 7.1854 4.68889 9.01651 4.68889H18.1982V8.35111H10.0629C9.01651 8.35111 8.49333 8.87429 8.49333 9.92064V10.4438ZM40.4049 12.7981L36.7427 19.3378H33.0805L29.4183 12.7981V23H24.7097V4.68889H29.6799L34.9116 14.3676L40.1434 4.68889H45.1135V23H40.4049V12.7981Z" fill="#013A89"/>
<path d="M62.2019 23H52.7848V19.3378H55.139V8.35111H52.7848V4.68889H62.2019V8.35111H59.8476V19.3378H62.2019V23ZM71.0938 10.4438C71.0938 11.4902 71.617 12.0133 72.6634 12.0133H77.3719C79.081 12.0133 80.3366 12.4144 81.1388 13.2166C81.941 14.0188 82.3421 15.2745 82.3421 16.9835V18.2914C82.3421 20.0005 81.941 21.2561 81.1388 22.0583C80.3366 22.8605 79.081 23.2616 77.3719 23.2616C76.8488 23.2616 76.2907 23.2529 75.6978 23.2354C75.1223 23.218 74.5293 23.1918 73.919 23.157C73.326 23.1395 72.7244 23.1134 72.114 23.0785C71.5211 23.061 70.9543 23.0349 70.4137 23C69.1406 22.9302 67.8763 22.843 66.6207 22.7384V19.207C67.8937 19.2767 69.1319 19.3465 70.3352 19.4163C71.3641 19.4686 72.4279 19.5122 73.5266 19.547C74.6253 19.5819 75.5583 19.5994 76.3256 19.5994C76.7267 19.5994 77.0406 19.486 77.2673 19.2593C77.5114 19.0152 77.6335 18.6925 77.6335 18.2914V15.9371H71.617C69.7859 15.9371 68.4518 15.5273 67.6147 14.7077C66.7951 13.8706 66.3853 12.5365 66.3853 10.7054V9.92064C66.3853 8.08952 66.7951 6.76415 67.6147 5.94451C68.4518 5.10743 69.7859 4.68889 71.617 4.68889H80.7987V8.35111H72.6634C71.617 8.35111 71.0938 8.87429 71.0938 9.92064V10.4438ZM91.234 10.4438C91.234 11.4902 91.7572 12.0133 92.8035 12.0133H97.5121C99.2211 12.0133 100.477 12.4144 101.279 13.2166C102.081 14.0188 102.482 15.2745 102.482 16.9835V18.2914C102.482 20.0005 102.081 21.2561 101.279 22.0583C100.477 22.8605 99.2211 23.2616 97.5121 23.2616C96.9889 23.2616 96.4309 23.2529 95.8379 23.2354C95.2625 23.218 94.6695 23.1918 94.0591 23.157C93.4662 23.1395 92.8646 23.1134 92.2542 23.0785C91.6613 23.061 91.0945 23.0349 90.5539 23C89.2808 22.9302 88.0165 22.843 86.7609 22.7384V19.207C88.0339 19.2767 89.2721 19.3465 90.4754 19.4163C91.5043 19.4686 92.5681 19.5122 93.6668 19.547C94.7654 19.5819 95.6984 19.5994 96.4658 19.5994C96.8669 19.5994 97.1808 19.486 97.4075 19.2593C97.6516 19.0152 97.7737 18.6925 97.7737 18.2914V15.9371H91.7572C89.9261 15.9371 88.592 15.5273 87.7549 14.7077C86.9353 13.8706 86.5254 12.5365 86.5254 10.7054V9.92064C86.5254 8.08952 86.9353 6.76415 87.7549 5.94451C88.592 5.10743 89.9261 4.68889 91.7572 4.68889H100.939V8.35111H92.8035C91.7572 8.35111 91.234 8.87429 91.234 9.92064V10.4438Z" fill="white"/>
</svg>

